<?xml version="1.0"?>
<svg xmlns="http://www.w3.org/2000/svg" xmlns:xlink="http://www.w3.org/1999/xlink" version="1.1" id="Capa_1" x="0px" y="0px" viewBox="0 0 513.75 513.75" style="enable-background:new 0 0 513.75 513.75;" xml:space="preserve" width="512px" height="512px" class=""><g><g>
	<path d="M229.517,208.089c-1.938,0-3.881-0.462-5.67-1.398c-4.045-2.116-6.559-6.267-6.559-10.833v-72.967   c0-4.467,2.434-8.575,6.352-10.721c3.918-2.148,8.689-1.985,12.454,0.419l54.726,34.964c3.453,2.206,5.562,5.969,5.641,10.066   s-1.884,7.938-5.249,10.276l-54.726,38.004C234.394,207.352,231.961,208.089,229.517,208.089z M232.288,127.958v62.593   l46.944-32.601L232.288,127.958z" data-original="#000000" class="active-path" data-old_color="#000000" fill="#FFFFFF"/>
</g><g>
	<polygon points="95.919,418.125 77.813,418.125 77.813,373.125 40.313,373.125 40.313,238.125 355.313,238.125 355.313,320.625    340.313,320.625 340.313,253.125 55.313,253.125 55.313,358.125 92.813,358.125 92.813,400.019 134.706,358.125 152.813,358.125    152.813,373.125 140.919,373.125  " data-original="#000000" class="active-path" data-old_color="#000000" fill="#FFFFFF"/>
</g><g>
	<path d="M445.313,513.75h-18.106l-45-45H167.813V335.625h315V468.75h-37.5V513.75z M182.813,453.75h205.606l41.894,41.894V453.75   h37.5V350.625h-285V453.75z" data-original="#000000" class="active-path" data-old_color="#000000" fill="#FFFFFF"/>
</g><g>
	<rect x="40.313" y="35.625" width="15" height="15" data-original="#000000" class="active-path" data-old_color="#000000" fill="#FFFFFF"/>
</g><g>
	<rect x="70.313" y="35.625" width="15" height="15" data-original="#000000" class="active-path" data-old_color="#000000" fill="#FFFFFF"/>
</g><g>
	<rect x="100.313" y="35.625" width="15" height="15" data-original="#000000" class="active-path" data-old_color="#000000" fill="#FFFFFF"/>
</g><g>
	<polygon points="0.938,0 0.938,318.75 25.313,318.75 25.313,303.75 15.938,303.75 15.938,15 497.813,15 497.813,303.75    370.313,303.75 370.313,318.75 512.813,318.75 512.813,0  " data-original="#000000" class="active-path" data-old_color="#000000" fill="#FFFFFF"/>
	<polygon points="415.313,253.125 415.313,260.625 370.313,260.625 370.313,275.625 415.313,275.625 415.313,283.125    430.313,283.125 430.313,275.625 467.813,275.625 467.813,260.625 430.313,260.625 430.313,253.125  " data-original="#000000" class="active-path" data-old_color="#000000" fill="#FFFFFF"/>
</g><g>
	<rect x="77.813" y="275.625" width="56.25" height="15" data-original="#000000" class="active-path" data-old_color="#000000" fill="#FFFFFF"/>
</g><g>
	<rect x="149.063" y="275.625" width="168.75" height="15" data-original="#000000" class="active-path" data-old_color="#000000" fill="#FFFFFF"/>
</g><g>
	<rect x="77.813" y="305.625" width="75" height="15" data-original="#000000" class="active-path" data-old_color="#000000" fill="#FFFFFF"/>
</g><g>
	<rect x="167.813" y="305.625" width="71.25" height="15" data-original="#000000" class="active-path" data-old_color="#000000" fill="#FFFFFF"/>
</g><g>
	<rect x="205.313" y="373.125" width="56.25" height="15" data-original="#000000" class="active-path" data-old_color="#000000" fill="#FFFFFF"/>
</g><g>
	<rect x="276.563" y="373.125" width="76.875" height="15" data-original="#000000" class="active-path" data-old_color="#000000" fill="#FFFFFF"/>
</g><g>
	<rect x="205.313" y="403.125" width="146.25" height="15" data-original="#000000" class="active-path" data-old_color="#000000" fill="#FFFFFF"/>
</g><g>
	<rect x="366.563" y="403.125" width="50.625" height="15" data-original="#000000" class="active-path" data-old_color="#000000" fill="#FFFFFF"/>
</g></g> </svg>
